<?xml version="1.0" standalone="no"?><!-- Generator: Gravit.io --><svg xmlns="http://www.w3.org/2000/svg" xmlns:xlink="http://www.w3.org/1999/xlink" style="isolation:isolate" viewBox="0 0 450 450" width="450" height="450"><defs><clipPath id="_clipPath_EqfjfuJKPcpvfyYBR4FzZm9th9xeP43S"><rect width="450" height="450"/></clipPath></defs><g clip-path="url(#_clipPath_EqfjfuJKPcpvfyYBR4FzZm9th9xeP43S)"><g id="Group"><path d=" M 61 276.942 C 61 186.428 134.486 112.942 225 112.942 C 315.514 112.942 389 186.428 389 276.942 C 389 367.456 315.514 440.942 225 440.942 C 134.486 440.942 61 367.456 61 276.942 Z " fill="rgb(180,123,133)"/><path d=" M 61.571 263.248 C 61.191 267.762 61 272.33 61 276.942 C 61 367.456 134.486 440.942 225 440.942 C 315.514 440.942 389 367.456 389 276.942 C 389 272.012 388.782 267.133 388.335 262.319 C 381.373 346.437 310.808 412.625 224.905 412.625 C 139.321 412.625 68.961 346.926 61.571 263.248 Z " fill="rgb(125,84,123)"/><path d=" M 82.04 196.593 C 110.162 146.677 163.673 112.942 225 112.942 C 286.186 112.942 339.591 146.522 367.771 196.245 C 347.406 224.399 314.283 242.726 276.914 242.726 C 233.791 242.726 196.323 218.321 177.589 182.577 C 163.565 197.79 143.474 207.33 121.173 207.33 C 106.882 207.33 93.499 203.413 82.04 196.593 Z " fill="rgb(173,182,194)"/><path d=" M 121.173 196.712 C 121.173 180.432 134.39 167.215 150.669 167.215 C 166.949 167.215 180.165 180.432 180.165 196.712 C 180.165 212.991 166.949 226.208 150.669 226.208 C 134.39 226.208 121.173 212.991 121.173 196.712 Z " fill="rgb(254,255,252)"/><path d=" M 266.295 321.776 C 266.295 312.009 274.225 304.079 283.993 304.079 C 293.761 304.079 301.691 312.009 301.691 321.776 C 301.691 331.544 293.761 339.474 283.993 339.474 C 274.225 339.474 266.295 331.544 266.295 321.776 Z " fill="rgb(231,165,160)"/><path d=" M 292.252 276.942 C 292.252 271.732 296.481 267.503 301.691 267.503 C 306.9 267.503 311.129 271.732 311.129 276.942 C 311.129 282.151 306.9 286.381 301.691 286.381 C 296.481 286.381 292.252 282.151 292.252 276.942 Z " fill="rgb(231,165,160)"/><path d=" M 209.662 289.92 C 209.662 284.711 213.891 280.481 219.101 280.481 C 224.31 280.481 228.54 284.711 228.54 289.92 C 228.54 295.13 224.31 299.359 219.101 299.359 C 213.891 299.359 209.662 295.13 209.662 289.92 Z " fill="rgb(231,165,160)"/><rect x="188.424" y="68.107" width="70.791" height="61.353" transform="matrix(1,0,0,1,0,0)" fill="rgb(172,181,194)"/><g style="mix-blend-mode:normal;" opacity="0.47"><path d="M 209.662 84.625 L 209.662 84.625 C 214.871 84.625 219.101 88.855 219.101 94.064 L 219.101 112.942 C 219.101 118.151 214.871 122.381 209.662 122.381 L 209.662 122.381 C 204.452 122.381 200.223 118.151 200.223 112.942 L 200.223 94.064 C 200.223 88.855 204.452 84.625 209.662 84.625 Z" style="stroke:none;fill:#FFFFFF;stroke-miterlimit:10;"/></g></g><g id="Group"><path d=" M 184.964 9.058 L 263.879 9.058 C 271.798 9.058 276.24 15.173 273.792 22.704 L 254.911 80.799 L 195.725 80.799 L 175.356 22.601 C 172.74 15.126 177.045 9.058 184.964 9.058 Z " fill="rgb(239,133,52)"/><path d=" M 215.256 9.058 L 263.879 9.058 C 271.798 9.058 276.24 15.173 273.792 22.704 L 254.911 80.799 L 238.686 80.799 C 238.741 80.143 238.77 79.479 238.77 78.808 L 238.77 32.571 C 238.77 19.594 228.234 9.058 215.256 9.058 Z " fill="rgb(157,68,38)"/><path d=" M 183.17 84.386 L 179.727 84.386 C 175.688 84.386 172.409 81.107 172.409 77.068 L 172.409 63.007 C 172.409 58.969 175.688 55.69 179.727 55.69 L 183.17 55.69 L 183.17 84.386 Z " fill="rgb(143,169,181)"/><path d=" M 197.519 84.386 L 183.17 84.386 L 183.17 55.69 L 197.519 55.69 L 197.519 84.386 Z " fill="rgb(199,201,201)"/><path d=" M 217.247 84.386 L 197.519 84.386 L 197.519 55.69 L 217.247 55.69 L 217.247 84.386 Z " fill="rgb(254,255,252)"/><path d=" M 233.389 84.386 L 217.247 84.386 L 217.247 55.69 L 233.389 55.69 L 233.389 84.386 Z " fill="rgb(199,202,202)"/><path d=" M 251.324 84.386 L 233.389 84.386 L 233.389 55.69 L 251.324 55.69 L 251.324 84.386 Z " fill="rgb(143,169,181)"/><path d=" M 269.259 83.715 C 268.419 84.176 267.447 84.386 266.426 84.386 L 251.324 84.386 L 251.324 55.69 L 266.426 55.69 C 267.447 55.69 268.419 55.899 269.259 56.361 L 269.259 83.715 Z " fill="rgb(104,119,131)"/><path d=" M 269.259 83.715 C 271.913 82.679 273.743 80.086 273.743 77.068 L 273.743 63.007 C 273.743 59.99 271.913 57.396 269.259 56.361 L 269.259 83.715 Z " fill="rgb(144,171,182)"/><path d=" M 177.79 24.497 C 177.79 23.507 178.593 22.704 179.583 22.704 C 180.573 22.704 181.377 23.507 181.377 24.497 C 181.377 25.487 180.573 26.291 179.583 26.291 C 178.593 26.291 177.79 25.487 177.79 24.497 Z " fill="rgb(157,68,38)"/><path d=" M 183.17 32.571 C 183.17 31.581 183.974 30.778 184.964 30.778 C 185.954 30.778 186.757 31.581 186.757 32.571 C 186.757 33.561 185.954 34.365 184.964 34.365 C 183.974 34.365 183.17 33.561 183.17 32.571 Z " fill="rgb(157,68,38)"/><path d=" M 198.415 36.158 C 198.415 35.168 199.219 34.365 200.209 34.365 C 201.199 34.365 202.002 35.168 202.002 36.158 C 202.002 37.148 201.199 37.952 200.209 37.952 C 199.219 37.952 198.415 37.148 198.415 36.158 Z " fill="rgb(157,68,38)"/><path d=" M 210.073 37.952 C 210.073 36.962 210.877 36.158 211.867 36.158 C 212.857 36.158 213.66 36.962 213.66 37.952 C 213.66 38.942 212.857 39.745 211.867 39.745 C 210.877 39.745 210.073 38.942 210.073 37.952 Z " fill="rgb(157,68,38)"/><path d=" M 224.527 25.2 C 224.527 24.21 225.331 23.406 226.321 23.406 C 227.311 23.406 228.115 24.21 228.115 25.2 C 228.115 26.19 227.311 26.993 226.321 26.993 C 225.331 26.993 224.527 26.19 224.527 25.2 Z " fill="rgb(157,68,38)"/><path d=" M 233.389 34.365 C 233.389 33.375 234.193 32.571 235.182 32.571 C 236.172 32.571 236.976 33.375 236.976 34.365 C 236.976 35.355 236.172 36.158 235.182 36.158 C 234.193 36.158 233.389 35.355 233.389 34.365 Z " fill="rgb(157,68,38)"/><path d=" M 222.628 41.539 C 222.628 40.549 223.431 39.745 224.421 39.745 C 225.411 39.745 226.215 40.549 226.215 41.539 C 226.215 42.529 225.411 43.332 224.421 43.332 C 223.431 43.332 222.628 42.529 222.628 41.539 Z " fill="rgb(157,68,38)"/><path d=" M 244.861 30.778 C 244.861 29.788 245.664 28.984 246.654 28.984 C 247.644 28.984 248.448 29.788 248.448 30.778 C 248.448 31.768 247.644 32.571 246.654 32.571 C 245.664 32.571 244.861 31.768 244.861 30.778 Z " fill="rgb(239,133,52)"/><path d=" M 253.118 42.439 C 253.118 41.449 253.921 40.645 254.911 40.645 C 255.901 40.645 256.705 41.449 256.705 42.439 C 256.705 43.428 255.901 44.232 254.911 44.232 C 253.921 44.232 253.118 43.428 253.118 42.439 Z " fill="rgb(239,133,52)"/><path d=" M 256.705 27.191 C 256.705 26.201 257.508 25.397 258.498 25.397 C 259.488 25.397 260.292 26.201 260.292 27.191 C 260.292 28.18 259.488 28.984 258.498 28.984 C 257.508 28.984 256.705 28.18 256.705 27.191 Z " fill="rgb(239,133,52)"/><path d=" M 262.085 32.571 C 262.085 31.581 262.889 30.778 263.879 30.778 C 264.869 30.778 265.672 31.581 265.672 32.571 C 265.672 33.561 264.869 34.365 263.879 34.365 C 262.889 34.365 262.085 33.561 262.085 32.571 Z " fill="rgb(239,133,52)"/><path d=" M 203.796 44.232 C 203.796 43.242 204.6 42.439 205.589 42.439 C 206.579 42.439 207.383 43.242 207.383 44.232 C 207.383 45.222 206.579 46.026 205.589 46.026 C 204.6 46.026 203.796 45.222 203.796 44.232 Z " fill="rgb(157,68,38)"/></g></g></svg>