<?xml version="1.0" standalone="no"?><!-- Generator: Gravit.io --><svg xmlns="http://www.w3.org/2000/svg" xmlns:xlink="http://www.w3.org/1999/xlink" style="isolation:isolate" viewBox="0 0 450 450" width="450" height="450"><defs><clipPath id="_clipPath_pLpmiryVaMmGLx09q86Ta1B5dYCFYhOd"><rect width="450" height="450"/></clipPath></defs><g clip-path="url(#_clipPath_pLpmiryVaMmGLx09q86Ta1B5dYCFYhOd)"><g id="Group"><path d=" M 393.006 57 L 171.64 278.366 L 152.638 259.408 L 317.086 69.644 L 393.006 57 Z " fill="rgb(197,202,233)"/><path d=" M 393.006 57 L 171.64 278.366 L 190.598 297.368 L 380.361 132.92 L 393.006 57 Z " fill="rgb(159,168,218)"/><path d=" M 187.423 332.144 L 117.861 262.556 C 115.34 260.044 113.923 256.631 113.923 253.072 C 113.923 249.514 115.34 246.101 117.861 243.589 C 120.373 241.071 123.784 239.655 127.34 239.655 C 130.897 239.655 134.308 241.071 136.819 243.589 L 206.417 313.178 C 211.512 318.446 211.439 326.828 206.252 332.007 C 201.066 337.185 192.685 337.247 187.423 332.144 Z  M 105.217 389.071 L 60.935 344.815 C 55.688 339.578 55.68 331.078 60.917 325.831 C 66.155 320.584 74.654 320.576 79.902 325.813 L 124.184 370.095 C 126.705 372.607 128.122 376.02 128.122 379.578 C 128.122 383.137 126.705 386.55 124.184 389.062 C 121.672 391.583 118.259 393 114.7 393 C 111.141 393 107.729 391.583 105.217 389.062 L 105.217 389.071 Z " fill="rgb(255,179,0)"/><path d=" M 133.68 278.366 L 152.638 297.368 L 102.043 347.963 L 83.076 328.97 L 133.68 278.366 Z " fill="rgb(239,108,0)"/><path d=" M 152.638 297.368 L 171.64 316.325 L 121.036 366.93 L 102.043 347.963 L 152.638 297.368 Z " fill="rgb(212,75,0)"/></g></g></svg>